<svg width="49" height="48" viewBox="0 0 49 48" fill="none" xmlns="http://www.w3.org/2000/svg">
<g clip-path="url(#clip0_1_95)">
<path fill-rule="evenodd" clip-rule="evenodd" d="M24.3125 47.5C37.2912 47.5 47.8125 36.9787 47.8125 24C47.8125 11.0213 37.2912 0.5 24.3125 0.5C11.3338 0.5 0.8125 11.0213 0.8125 24C0.8125 36.9787 11.3338 47.5 24.3125 47.5Z" stroke="#EEEEEE"/>
<path fill-rule="evenodd" clip-rule="evenodd" d="M20.1785 11.7717L35.5333 27.1266L26.0842 36.5757L10.7294 21.2209L20.1785 11.7717Z" fill="#5697FA"/>
<path fill-rule="evenodd" clip-rule="evenodd" d="M14.6046 19.7079L18.6655 15.647C18.9767 16.1563 19.5379 16.4963 20.1785 16.4963C20.8191 16.4963 21.3803 16.1563 21.6915 15.647L31.6581 25.6136C31.1487 25.9248 30.8088 26.486 30.8088 27.1266C30.8088 27.7671 31.1487 28.3283 31.6581 28.6395L27.5972 32.7005C27.286 32.1911 26.7248 31.8511 26.0842 31.8511C25.4436 31.8511 24.8824 32.1911 24.5713 32.7005L14.6046 22.7338C15.114 22.4226 15.4539 21.8614 15.4539 21.2209C15.4539 20.5803 15.114 20.0191 14.6046 19.7079Z" fill="white"/>
<path d="M23.1314 28.3077C25.4145 28.3077 27.2654 26.4569 27.2654 24.1737C27.2654 21.8906 25.4145 20.0397 23.1314 20.0397C20.8482 20.0397 18.9974 21.8906 18.9974 24.1737C18.9974 26.4569 20.8482 28.3077 23.1314 28.3077Z" fill="#3483FA"/>
<path fill-rule="evenodd" clip-rule="evenodd" d="M21.2521 25.6395L20.9877 25.9039C20.771 26.1206 20.8989 26.5215 21.3301 26.5172C21.3472 26.5167 21.3635 26.5097 21.3757 26.4977L21.7332 26.1401C22.4268 26.6927 23.2048 26.7144 23.7271 26.1921C24.2494 25.6698 24.2451 25.0348 23.6816 24.0964L23.4042 23.6196C23.1571 23.1341 23.2048 22.9478 23.3803 22.7722C23.5559 22.5967 23.8766 22.588 24.1757 22.8329C24.212 22.8629 24.2467 22.8948 24.2797 22.9283C24.3668 23.0187 24.4418 23.1199 24.503 23.2295C24.6246 23.4479 24.7178 23.681 24.7804 23.923C24.7978 24.0045 24.8376 24.0796 24.8952 24.1397C25.0638 24.3049 25.3335 24.3049 25.5021 24.1397C25.6172 24.0272 25.6561 23.8578 25.6018 23.7063C25.5223 23.3457 25.3647 23.0069 25.1401 22.7137L25.4739 22.38C25.4859 22.3678 25.4929 22.3515 25.4934 22.3344C25.4934 21.901 25.086 21.784 24.8801 21.992L24.6633 22.2087C23.9872 21.6561 23.2221 21.6323 22.7128 22.1524C22.2035 22.6725 22.1884 23.288 22.7432 24.2351L23.0293 24.7032C23.2872 25.1952 23.246 25.3946 23.0574 25.5701C22.8407 25.7868 22.5503 25.763 22.2339 25.5094C22.2339 25.5094 22.1927 25.4726 22.1342 25.4141C22.0423 25.323 21.9582 25.2244 21.8828 25.1193C21.6898 24.8124 21.5608 24.4696 21.5035 24.1116C21.499 23.9393 21.3929 23.7861 21.2332 23.7213C21.0736 23.6565 20.8907 23.6924 20.7674 23.8128C20.6441 23.9332 20.6039 24.1151 20.6648 24.2763C20.7428 24.7728 20.9448 25.2417 21.2521 25.6395Z" fill="white"/>
<path fill-rule="evenodd" clip-rule="evenodd" d="M30.3125 17L29.0094 15.784C27.3939 14.2765 24.8173 14.3213 23.2524 15.8861L20.1785 18.9601C21.4832 20.2647 24.3125 19.5506 24.3125 19.5506L26.0842 17.7789L34.2625 26H37.3125V17H30.3125Z" fill="#0864EE"/>
<path d="M16.7141 22.6264C17.0605 22.28 17.5141 22.1067 17.9679 22.1067C18.3896 22.1067 18.8109 22.2564 19.147 22.5558C19.768 23.2524 19.7452 24.3201 19.0764 24.9887L16.8594 27.206C16.1909 27.8742 15.1231 27.8987 14.4257 27.2754C13.8056 26.5791 13.8286 25.5119 14.4971 24.8437L16.7141 22.6264ZM19.0764 24.9887C19.4228 24.6423 19.8766 24.469 20.3305 24.469C20.7519 24.469 21.1732 24.6184 21.509 24.9181C22.1303 25.6144 22.1075 26.6824 21.4387 27.351L19.2217 29.5683C18.5535 30.2362 17.4866 30.261 16.7888 29.6385C16.1679 28.9425 16.1906 27.8745 16.8594 27.206L19.0764 24.9887ZM21.4387 27.351C21.7851 27.0046 22.2386 26.8313 22.6925 26.8313C23.1144 26.8313 23.5364 26.9813 23.8724 27.2816C24.4925 27.9778 24.4695 29.0447 23.801 29.7132L21.584 31.9305C20.9157 32.5985 19.8489 32.6233 19.1511 32.0008C18.5301 31.3048 18.5529 30.2368 19.2217 29.5683L21.4387 27.351ZM23.801 29.7132C24.1473 29.3669 24.6012 29.1935 25.0548 29.1935C25.4767 29.1935 25.8987 29.3435 26.2347 29.6438C26.8548 30.3401 26.8315 31.407 26.1633 32.0755L23.946 34.2928C23.2783 34.9608 22.2112 34.9856 21.5137 34.3634C20.8924 33.6671 20.9152 32.5991 21.584 31.9305L23.801 29.7132Z" fill="#0864EE"/>
</g>
<defs>
<clipPath id="clip0_1_95">
<rect width="48" height="48" fill="white" transform="translate(0.3125)"/>
</clipPath>
</defs>
</svg>
