<svg width="75" height="75" viewBox="0 0 75 75" fill="none" xmlns="http://www.w3.org/2000/svg">
<g clip-path="url(#clip0_1_225)">
<mask id="mask0_1_225" style="mask-type:alpha" maskUnits="userSpaceOnUse" x="1" y="1" width="73" height="73">
<path d="M73.3281 1.1875H1.32812V73.1875H73.3281V1.1875Z" fill="white"/>
</mask>
<g mask="url(#mask0_1_225)">
<path d="M73.3281 1.1875H1.32812V73.1875H73.3281V1.1875Z" fill="white"/>
<path d="M32.2314 35.0509C32.2199 35.0856 32.1976 35.1158 32.1679 35.1371C32.1381 35.1585 32.1024 35.1699 32.0658 35.1697H25.2249L30.7671 39.1414C30.795 39.1619 30.8284 39.1734 30.8629 39.1746C30.8974 39.1757 30.9315 39.1663 30.9606 39.1477C32.4933 38.2072 33.8343 37.5547 36.6846 36.8185C36.6846 36.8185 32.3106 40.0504 29.4477 43.672C29.3843 43.7503 29.3361 43.8397 29.3055 43.9357L28.7097 45.7465L34.2447 41.7793C34.2742 41.7573 34.3101 41.7454 34.3469 41.7454C34.3837 41.7454 34.4195 41.7573 34.449 41.7793L39.984 45.7465L37.8699 39.3259C37.8584 39.2916 37.8583 39.2544 37.8696 39.22C37.881 39.1856 37.9032 39.1558 37.9329 39.1351L43.4679 35.1679H36.6279C36.5913 35.1681 36.5556 35.1567 36.5259 35.1353C36.4961 35.114 36.4739 35.0838 36.4623 35.0491L34.3482 28.6294L32.2314 35.0509Z" fill="url(#paint0_linear_1_225)"/>
<path d="M67.9281 36.5206H63.6144V32.2645H61.3257V36.5206H57.0147V38.713H61.3257V42.9682H63.6144V38.713H67.9281V36.5206ZM49.2963 33.5056C50.415 33.5056 51.1296 34.0789 51.1296 35.0275C51.1296 36.0193 50.415 36.7258 49.2963 36.7258H47.5071V33.5065H49.2954L49.2963 33.5056ZM50.7039 38.9749C52.6254 38.7328 54.2139 37.1002 54.2139 35.0275C54.2139 32.3374 52.3581 30.8605 49.3629 30.8605H44.4669V44.4019H47.508V39.0415L51.1512 44.401H54.6828L50.7039 38.9749ZM26.3418 30.8578H17.2878V33.5929H20.2623V44.4001H23.37V33.5929H26.3436V30.8578H26.3418ZM11.5692 35.8222C10.698 35.4244 10.3623 35.0059 10.3623 34.4542C10.3623 33.8152 10.9212 33.2842 11.7483 33.3076C12.5079 33.3292 13.0668 33.7261 13.4916 34.6756L16.1061 33.5506C15.3915 31.7416 13.9371 30.6832 11.5908 30.6832C9.10953 30.6832 7.27623 32.2933 7.27623 34.4542C7.27623 35.932 7.99083 37.1452 9.82413 38.0488L11.6574 38.9533C12.6861 39.4609 13.1775 39.8362 13.1775 40.5859C13.1775 41.3806 12.5061 41.9539 11.6574 41.9539C10.7412 41.9539 9.91503 41.4463 9.53343 40.2997L6.76143 41.0935C7.38783 43.321 9.24363 44.6224 11.6574 44.6224C14.2728 44.6224 16.2852 42.9682 16.2852 40.5859C16.2852 38.7562 15.3015 37.5205 13.3107 36.616L11.5692 35.8213V35.8222Z" fill="#261E3C"/>
</g>
</g>
<rect x="0.828125" y="0.6875" width="73" height="73" rx="36.5" stroke="#EFEFEF"/>
<defs>
<linearGradient id="paint0_linear_1_225" x1="26.0556" y1="46.9174" x2="42.2673" y2="30.4861" gradientUnits="userSpaceOnUse">
<stop stop-color="#FA1660"/>
<stop offset="0.28" stop-color="#FA1660"/>
<stop offset="0.78" stop-color="#FF6E00"/>
<stop offset="1" stop-color="#FF6E00"/>
</linearGradient>
<clipPath id="clip0_1_225">
<rect width="72" height="72" fill="white" transform="translate(1.32812 1.1875)"/>
</clipPath>
</defs>
</svg>
