<svg width="49" height="48" viewBox="0 0 49 48" fill="none" xmlns="http://www.w3.org/2000/svg">
<g clip-path="url(#clip0_1_118)">
<path fill-rule="evenodd" clip-rule="evenodd" d="M24.9688 47.5C37.9474 47.5 48.4688 36.9787 48.4688 24C48.4688 11.0213 37.9474 0.5 24.9688 0.5C11.9901 0.5 1.46875 11.0213 1.46875 24C1.46875 36.9787 11.9901 47.5 24.9688 47.5Z" stroke="#EEEEEE"/>
<path d="M24.9688 36C31.5962 36 36.9688 30.6274 36.9688 24C36.9688 17.3726 31.5962 12 24.9688 12C18.3413 12 12.9688 17.3726 12.9688 24C12.9688 30.6274 18.3413 36 24.9688 36Z" fill="#5697FA"/>
<path d="M25.9688 18H23.9688V30H25.9688V18Z" fill="white"/>
<path d="M30.9688 25V23L18.9688 23V25L30.9688 25Z" fill="white"/>
</g>
<defs>
<clipPath id="clip0_1_118">
<rect width="48" height="48" fill="white" transform="translate(0.96875)"/>
</clipPath>
</defs>
</svg>
